# xmcd
#
# Track frame offsets: 
#        150
#        10850
#        23305
#        35990
#        46792
#        58760
#        72807
#        86542
#        99332
#        112345
#        125250
#        136757
#        148725
#        162292
#        174740
#        188740
#
# Disc length: 2846 seconds
#
# Revision: 0
# Processed by: cddbd v1.5.2PL0 Copyright (c) Steve Scherf et al.
# Submitted via: ExactAudioCopy v0.99pb3
#
DISCID=d40b1c10
DTITLE=Various Artist - Delicious Together - 16 Soulful Duets
DYEAR=1995
DGENRE=Soul
TTITLE0=Dinah Washington and Brook Benton - A Rockin' Good Way (To Mess 
TTITLE0=Around And Fall In Love)
TTITLE1=Etta James and Harvey Fuqua - If I Can't Have You
TTITLE2=Jerry Butler and Betty Everett - Let It Be Me
TTITLE3=Dinah Washington and Brook Benton - I Do
TTITLE4=Barbara Lewis and The Dells - Hello Stranger
TTITLE5=Jackie Wilson and Linda Hopkins - Shake A Hand
TTITLE6=Jerry Butler and Betty Everett - Love Is Strange
TTITLE7=Inez and Charlie Foxx - Mockingbird
TTITLE8=Chuck Jackson and Maxine Brown - Something You Got
TTITLE9=Bobby McClure and Fontella Bass - Don't Mess Up A Good Thing
TTITLE10=Jackie Wilson and La Vern Baker - Think Twice
TTITLE11=Eddie Bo and Inez Cheatham - Lover And A Friend
TTITLE12=Lee Dorsey and Betty Harris - Love Lots Of Lovin'
TTITLE13=Peggy Scott and Jo Jo Benson - Pickin' Wild Mountain Berries
TTITLE14=Big John Hamilton and Doris Allen - Them Changes
TTITLE15=Bobby Womack and Patti La Belle - Love Has Finally Come At Last
EXTD=
EXTT0=
EXTT1=
EXTT2=
EXTT3=
EXTT4=
EXTT5=
EXTT6=
EXTT7=
EXTT8=
EXTT9=
EXTT10=
EXTT11=
EXTT12=
EXTT13=
EXTT14=
EXTT15=
PLAYORDER=
